@startuml
class org.accordproject.carrentaltr_0_2_0.PaymentRequest << (T,yellow) >> {
}
org.accordproject.carrentaltr_0_2_0.PaymentRequest --|> org.accordproject.runtime_0_2_0.Request
class org.accordproject.carrentaltr_0_2_0.PayOut << (T,yellow) >> {
   + MonetaryAmount amount
}
org.accordproject.carrentaltr_0_2_0.PayOut --|> org.accordproject.runtime_0_2_0.Response
class org.accordproject.carrentaltr_0_2_0.PaymentClause << (A,green) >> {
   + String amountText
   + MonetaryAmount amount
   + String paymentProcedure
}
org.accordproject.carrentaltr_0_2_0.PaymentClause --|> org.accordproject.contract_0_2_0.Clause
class org.accordproject.carrentaltr_0_2_0.TemplateModel << (A,green) >> {
   + String lessorName
   + String lessorAddress
   + String lessorPhone
   + String lesseeName
   + String lesseeAddress
   + String lesseePhone
   + String authorizedCourt
   + String plateID
   + String carBrand
   + String model
   + String modelYear
   + String color
   + String vechileID
   + String startDate
   + String endDate
   + String deliveryStation
   + PaymentClause paymentClause
}
org.accordproject.carrentaltr_0_2_0.TemplateModel --|> org.accordproject.contract_0_2_0.Clause
@enduml
