@startuml
class org.accordproject.companyinformation_0_1_0.PostalAddress {
   + String streetAddress
   + String postalCode
   + String addressRegion
   + String addressLocality
   + String addressCountry
}
org.accordproject.companyinformation_0_1_0.PostalAddress --|> concerto_1_0_0.Concept
class org.accordproject.companyinformation_0_1_0.TemplateModel << (A,green) >> {
   + String name
   + String industry
   + String website
   + PostalAddress address
   + Integer numberOfEmployees
}
org.accordproject.companyinformation_0_1_0.TemplateModel --|> org.accordproject.contract_0_2_0.Clause
@enduml
