@startuml
class org.accordproject.docusignconnect_0_1_0.MyResponse << (T,yellow) >> {
   + String output
   + Integer counter
}
org.accordproject.docusignconnect_0_1_0.MyResponse --|> org.accordproject.runtime_0_2_0.Response
class org.accordproject.docusignconnect_0_1_0.DocuSignNotificationEvent {
   + String title
   + String message
}
org.accordproject.docusignconnect_0_1_0.DocuSignNotificationEvent --|> concerto_1_0_0.Event
class org.accordproject.docusignconnect_0_1_0.DocuSignEnvelopeCounterState {
   + String $identifier
   + Integer counter
}
org.accordproject.docusignconnect_0_1_0.DocuSignEnvelopeCounterState --|> concerto_1_0_0.Concept
class org.accordproject.docusignconnect_0_1_0.TemplateModel << (A,green) >> {
   + EnvelopeStatusCode status
}
org.accordproject.docusignconnect_0_1_0.TemplateModel --|> org.accordproject.contract_0_2_0.Clause
@enduml
