@startuml
class org.accordproject.eatapples_0_2_0.Food << (T,yellow) >> {
   + String produce
   + MonetaryAmount price
}
org.accordproject.eatapples_0_2_0.Food --|> org.accordproject.runtime_0_2_0.Request
class org.accordproject.eatapples_0_2_0.Outcome << (T,yellow) >> {
   + String notice
}
org.accordproject.eatapples_0_2_0.Outcome --|> org.accordproject.runtime_0_2_0.Response
class org.accordproject.eatapples_0_2_0.Bill {
   + String billTo
   + MonetaryAmount amount
}
org.accordproject.eatapples_0_2_0.Bill --|> concerto_1_0_0.Event
class org.accordproject.eatapples_0_2_0.TemplateModel << (A,green) >> {
   + String employee
   + String company
   + Double tax
}
org.accordproject.eatapples_0_2_0.TemplateModel --|> org.accordproject.contract_0_2_0.Clause
@enduml
