@startuml
class org.accordproject.empty.EmptyContract << (A,green) >> {
}
org.accordproject.empty.EmptyContract --|> org.accordproject.contract.Contract
class org.accordproject.empty.EmptyRequest << (T,yellow) >> {
}
org.accordproject.empty.EmptyRequest --|> org.accordproject.runtime.Request
class org.accordproject.empty.EmptyResponse << (T,yellow) >> {
}
org.accordproject.empty.EmptyResponse --|> org.accordproject.runtime.Response
@enduml
