@startuml
class org.accordproject.empty.EmptyClause << (A,green) >> {
}
org.accordproject.empty.EmptyClause --|> org.accordproject.cicero.contract.AccordClause
class org.accordproject.empty.EmptyRequest << (T,yellow) >> {
}
org.accordproject.empty.EmptyRequest --|> org.accordproject.cicero.runtime.Request
class org.accordproject.empty.EmptyResponse << (T,yellow) >> {
}
org.accordproject.empty.EmptyResponse --|> org.accordproject.cicero.runtime.Response
@enduml
