@startuml
class org.accordproject.fixedinterestsstatic_0_2_0.FixedInterestsStaticRequest << (T,yellow) >> {
   + String input
}
org.accordproject.fixedinterestsstatic_0_2_0.FixedInterestsStaticRequest --|> org.accordproject.runtime_0_2_0.Request
class org.accordproject.fixedinterestsstatic_0_2_0.FixedInterestsStaticResponse << (T,yellow) >> {
   + String output
}
org.accordproject.fixedinterestsstatic_0_2_0.FixedInterestsStaticResponse --|> org.accordproject.runtime_0_2_0.Response
class org.accordproject.fixedinterestsstatic_0_2_0.TemplateModel << (A,green) >> {
   + MonetaryAmount loanAmount
   + Double rate
   + Integer loanDuration
   + MonetaryAmount monthlyPayment
}
org.accordproject.fixedinterestsstatic_0_2_0.TemplateModel --|> org.accordproject.contract_0_2_0.Clause
@enduml
