@startuml
class org.accordproject.fullpaymentupondemand_0_2_0.TemplateModel << (A,green) >> {
   + String buyer
   + String seller
   + MonetaryAmount amount
}
org.accordproject.fullpaymentupondemand_0_2_0.TemplateModel --|> org.accordproject.contract_0_2_0.Clause
class org.accordproject.fullpaymentupondemand_0_2_0.PaymentDemand << (T,yellow) >> {
}
org.accordproject.fullpaymentupondemand_0_2_0.PaymentDemand --|> org.accordproject.runtime_0_2_0.Request
class org.accordproject.fullpaymentupondemand_0_2_0.PaymentDemandResponse << (T,yellow) >> {
}
org.accordproject.fullpaymentupondemand_0_2_0.PaymentDemandResponse --|> org.accordproject.runtime_0_2_0.Response
class org.accordproject.fullpaymentupondemand_0_2_0.PaymentReceived << (T,yellow) >> {
}
org.accordproject.fullpaymentupondemand_0_2_0.PaymentReceived --|> org.accordproject.runtime_0_2_0.Request
class org.accordproject.fullpaymentupondemand_0_2_0.PaymentReceivedResponse << (T,yellow) >> {
}
org.accordproject.fullpaymentupondemand_0_2_0.PaymentReceivedResponse --|> org.accordproject.runtime_0_2_0.Response
class org.accordproject.fullpaymentupondemand_0_2_0.PaymentObligationEvent {
   + MonetaryAmount amount
   + String description
}
org.accordproject.fullpaymentupondemand_0_2_0.PaymentObligationEvent --|> concerto_1_0_0.Event
class org.accordproject.fullpaymentupondemand_0_2_0.FullPaymentUponDemandState {
   + String $identifier
   + String status
}
org.accordproject.fullpaymentupondemand_0_2_0.FullPaymentUponDemandState --|> concerto_1_0_0.Concept
@enduml
