@startuml
class org.accordproject.fullpaymentupondsignature_0_1_0.TemplateModel << (A,green) >> {
   + String buyer
   + String seller
   + Double amount
   + String currencyCode
}
org.accordproject.fullpaymentupondsignature_0_1_0.TemplateModel --|> org.accordproject.contract_0_2_0.Clause
class org.accordproject.fullpaymentupondsignature_0_1_0.ContractSigned << (T,yellow) >> {
}
org.accordproject.fullpaymentupondsignature_0_1_0.ContractSigned --|> org.accordproject.runtime_0_2_0.Request
class org.accordproject.fullpaymentupondsignature_0_1_0.ContractSignedResponse << (T,yellow) >> {
}
org.accordproject.fullpaymentupondsignature_0_1_0.ContractSignedResponse --|> org.accordproject.runtime_0_2_0.Response
class org.accordproject.fullpaymentupondsignature_0_1_0.PaymentReceived << (T,yellow) >> {
}
org.accordproject.fullpaymentupondsignature_0_1_0.PaymentReceived --|> org.accordproject.runtime_0_2_0.Request
class org.accordproject.fullpaymentupondsignature_0_1_0.PaymentReceivedResponse << (T,yellow) >> {
}
org.accordproject.fullpaymentupondsignature_0_1_0.PaymentReceivedResponse --|> org.accordproject.runtime_0_2_0.Response
class org.accordproject.fullpaymentupondsignature_0_1_0.PaymentObligationEvent {
   + Double amount
   + String currencyCode
   + String description
}
org.accordproject.fullpaymentupondsignature_0_1_0.PaymentObligationEvent --|> concerto_1_0_0.Event
class org.accordproject.fullpaymentupondsignature_0_1_0.FullPaymentUponSignatureState {
   + String $identifier
   + String status
}
org.accordproject.fullpaymentupondsignature_0_1_0.FullPaymentUponSignatureState --|> concerto_1_0_0.Concept
@enduml
