@startuml
class org.accordproject.hellomodule.MyRequest << (T,yellow) >> {
   + String input
}
org.accordproject.hellomodule.MyRequest --|> org.accordproject.cicero.runtime.Request
class org.accordproject.hellomodule.MyResponse << (T,yellow) >> {
   + String output
}
org.accordproject.hellomodule.MyResponse --|> org.accordproject.cicero.runtime.Response
class org.accordproject.hellomodule.HelloModuleClause << (A,green) >> {
   + String name
}
org.accordproject.hellomodule.HelloModuleClause --|> org.accordproject.cicero.contract.AccordClause
@enduml
