@startuml
class org.accordproject.installmentsale_0_1_0.Installment << (T,yellow) >> {
   + Double amount
   + String currencyCode
}
org.accordproject.installmentsale_0_1_0.Installment --|> org.accordproject.runtime_0_2_0.Request
class org.accordproject.installmentsale_0_1_0.ClosingPayment << (T,yellow) >> {
   + Double amount
   + String currencyCode
}
org.accordproject.installmentsale_0_1_0.ClosingPayment --|> org.accordproject.runtime_0_2_0.Request
class org.accordproject.installmentsale_0_1_0.Balance << (T,yellow) >> {
   + Double balance
   + String balanceCurrency
   + Double total_paid
   + String totalPaidCurrency
}
org.accordproject.installmentsale_0_1_0.Balance --|> org.accordproject.runtime_0_2_0.Response
class org.accordproject.installmentsale_0_1_0.ContractStatus << (E,grey) >> {
   + WaitingForFirstDayOfNextMonth
   + Fulfilled
}
org.accordproject.installmentsale_0_1_0.ContractStatus --|> concerto_1_0_0.Concept
class org.accordproject.installmentsale_0_1_0.InstallmentSaleState {
   + String $identifier
   + ContractStatus status
   + Double balance_remaining
   + String currencyCode
   + Integer next_payment_month
   + Double total_paid
}
org.accordproject.installmentsale_0_1_0.InstallmentSaleState --|> concerto_1_0_0.Concept
class org.accordproject.installmentsale_0_1_0.InstallmentSalePaymentEvent {
   + Double amount
   + String currencyCode
   + String description
}
org.accordproject.installmentsale_0_1_0.InstallmentSalePaymentEvent --|> concerto_1_0_0.Event
class org.accordproject.installmentsale_0_1_0.TemplateModel << (A,green) >> {
   + String BUYER
   + String SELLER
   + Double INITIAL_DUE
   + String CURRENCY_CODE
   + Double INTEREST_RATE
   + Double TOTAL_DUE_BEFORE_CLOSING
   + Double MIN_PAYMENT
   + Double DUE_AT_CLOSING
   + Integer FIRST_MONTH
}
org.accordproject.installmentsale_0_1_0.TemplateModel --|> org.accordproject.contract_0_2_0.Clause
@enduml
