@startuml
class org.accordproject.isda.irs_0_2_0.DayCountFraction {
   + String value
   + String dayCountFractionScheme
}
org.accordproject.isda.irs_0_2_0.DayCountFraction --|> concerto_1_0_0.Concept
class org.accordproject.isda.irs_0_2_0.RateObservation << (T,yellow) >> {
}
org.accordproject.isda.irs_0_2_0.RateObservation --|> org.accordproject.runtime_0_2_0.Request
class org.accordproject.isda.irs_0_2_0.Result << (T,yellow) >> {
   + MonetaryAmount outstandingBalance
}
org.accordproject.isda.irs_0_2_0.Result --|> org.accordproject.runtime_0_2_0.Response
class org.accordproject.isda.irs_0_2_0.TemplateModel << (A,green) >> {
   + String bank
   + DateTime letterDate
   + String counterparty
   + String bankReference
   + MonetaryAmount notionalAmount
   + DateTime tradeDate
   + DateTime effectiveDate
   + DateTime terminationDate
   + String fixedRatePayer
   + String fixedRatePayerPeriodEndDates
   + String fixedRatePayerPaymentDates
   + Double fixedRate
   + DayCountFraction fixedRateDayCountFraction
   + String fixedRatePayerBusinessDays
   + String fixedRatePayerBusinessDayConvention
   + String floatingRatePayer
   + String floatingRatePayerPeriodEndDates
   + String floatingRatePayerPaymentDates
   + Double floatingRateForInitialCalculationPeriod
   + String floatingRateOption
   + String designatedMaturity
   + String spread
   + DayCountFraction floatingRateDayCountFraction
   + String resetDates
   + String compounding
   + String floatingRatePayerBusinessDays
   + String floatingRatePayerBusinessDayConvention
}
org.accordproject.isda.irs_0_2_0.TemplateModel --|> org.accordproject.contract_0_2_0.Clause
@enduml
