@startuml
class org.accordproject.latedeliveryandpenalty.Distance {
   + Double miles
}
class org.accordproject.latedeliveryandpenalty.LateDeliveryAndPenaltyContract << (A,green) >> {
   + AccordParty buyer
   + AccordParty seller
   + Distance forceMajeure
   + Duration penaltyDuration
   + Double penaltyPercentage
   + Double capPercentage
   + Duration termination
   + TemporalUnit fractionalPart
}
org.accordproject.latedeliveryandpenalty.LateDeliveryAndPenaltyContract --|> org.accordproject.cicero.contract.AccordContract
class org.accordproject.latedeliveryandpenalty.LateDeliveryAndPenaltyRequest << (T,yellow) >> {
   + Distance forceMajeure
   + DateTime agreedDelivery
   + DateTime deliveredAt
   + Double goodsValue
}
org.accordproject.latedeliveryandpenalty.LateDeliveryAndPenaltyRequest --|> org.accordproject.cicero.runtime.Request
class org.accordproject.latedeliveryandpenalty.LateDeliveryAndPenaltyResponse << (T,yellow) >> {
   + Double penalty
   + Boolean buyerMayTerminate
}
org.accordproject.latedeliveryandpenalty.LateDeliveryAndPenaltyResponse --|> org.accordproject.cicero.runtime.Response
@enduml
