@startuml
class org.accordproject.minilatedeliveryandpenalty.MiniLateDeliveryClause << (A,green) >> {
   + AccordParty buyer
   + AccordParty seller
   + Duration penaltyDuration
   + Double penaltyPercentage
   + Duration maximumDelay
}
org.accordproject.minilatedeliveryandpenalty.MiniLateDeliveryClause --|> org.accordproject.cicero.contract.AccordClause
class org.accordproject.minilatedeliveryandpenalty.LateRequest << (T,yellow) >> {
   + DateTime agreedDelivery
   + DateTime deliveredAt
   + Double goodsValue
}
org.accordproject.minilatedeliveryandpenalty.LateRequest --|> org.accordproject.cicero.runtime.Request
class org.accordproject.minilatedeliveryandpenalty.LateResponse << (T,yellow) >> {
   + Double penalty
   + Boolean buyerMayTerminate
}
org.accordproject.minilatedeliveryandpenalty.LateResponse --|> org.accordproject.cicero.runtime.Response
@enduml
