@startuml
class org.accordtr.onetimepayment.PaymentReceivedRequest << (T,yellow) >> {
}
org.accordtr.onetimepayment.PaymentReceivedRequest --|> org.accordproject.cicero.runtime.Request
class org.accordtr.onetimepayment.PaymentReceivedResponse << (T,yellow) >> {
}
org.accordtr.onetimepayment.PaymentReceivedResponse --|> org.accordproject.cicero.runtime.Response
class org.accordtr.onetimepayment.OneTimePaymentState << (A,green) >> {
   + ContractLifecycleStatus status
}
org.accordtr.onetimepayment.OneTimePaymentState --|> org.accordproject.cicero.contract.AccordContractState
class org.accordtr.onetimepayment.ContractLifecycleStatus << (E,grey) >> {
   + UNINITIALIZED
   + OBLIGATION_EMITTED
   + COMPLETED
}
class org.accordtr.onetimepayment.OneTimePaymentContract << (A,green) >> {
   + AccordParty buyer
   + AccordParty seller
   + MonetaryAmount totalPurchasePrice
}
org.accordtr.onetimepayment.OneTimePaymentContract --|> org.accordproject.cicero.contract.AccordContract
@enduml
