@startuml
class org.accordproject.perishablegoods_0_2_0.UnitOfMass << (E,grey) >> {
   + KG
   + TONNE
   + LB
}
org.accordproject.perishablegoods_0_2_0.UnitOfMass --|> concerto_1_0_0.Concept
class org.accordproject.perishablegoods_0_2_0.SensorReading {
   + Double centigrade
   + Double humidity
}
org.accordproject.perishablegoods_0_2_0.SensorReading --|> concerto_1_0_0.Concept
class org.accordproject.perishablegoods_0_2_0.ShipmentReceived << (T,yellow) >> {
   + String shipmentId
   + Integer unitCount
   + SensorReading[] sensorReadings
}
org.accordproject.perishablegoods_0_2_0.ShipmentReceived --|> org.accordproject.runtime_0_2_0.Request
class org.accordproject.perishablegoods_0_2_0.PriceCalculation << (T,yellow) >> {
   + Double totalPrice
   + Double penalty
   + String currencyCode
   + Boolean late
}
org.accordproject.perishablegoods_0_2_0.PriceCalculation --|> org.accordproject.runtime_0_2_0.Response
class org.accordproject.perishablegoods_0_2_0.PerishableGoodsPaymentEvent {
   + Double totalPrice
   + String currencyCode
   + String description
}
org.accordproject.perishablegoods_0_2_0.PerishableGoodsPaymentEvent --|> concerto_1_0_0.Event
class org.accordproject.perishablegoods_0_2_0.PerishableGoodsState {
   + String $identifier
   + Boolean payoutMade
   + Double totalPaid
}
org.accordproject.perishablegoods_0_2_0.PerishableGoodsState --|> concerto_1_0_0.Concept
class org.accordproject.perishablegoods_0_2_0.TemplateModel << (A,green) >> {
   + String grower
   + String importer
   + String shipmentId
   + DateTime dueDate
   + UnitOfMass unit
   + Integer minUnits
   + Integer maxUnits
   + String product
   + Integer sensorReadingFrequency
   + String duration
   + MonetaryAmount unitPrice
   + Double minTemperature
   + Double maxTemperature
   + Double minHumidity
   + Double maxHumidity
   + Double penaltyFactor
}
org.accordproject.perishablegoods_0_2_0.TemplateModel --|> org.accordproject.contract_0_2_0.Clause
@enduml
