@startuml
class org.accordproject.safte_0_2_0.TokenSale << (T,yellow) >> {
   + MonetaryAmount tokenPrice
}
org.accordproject.safte_0_2_0.TokenSale --|> org.accordproject.runtime_0_2_0.Request
class org.accordproject.safte_0_2_0.TokenShare << (T,yellow) >> {
   + Double tokenAmount
}
org.accordproject.safte_0_2_0.TokenShare --|> org.accordproject.runtime_0_2_0.Response
class org.accordproject.safte_0_2_0.EquityFinancing << (T,yellow) >> {
   + MonetaryAmount sharePrice
}
org.accordproject.safte_0_2_0.EquityFinancing --|> org.accordproject.runtime_0_2_0.Request
class org.accordproject.safte_0_2_0.EquityShare << (T,yellow) >> {
   + MonetaryAmount equityAmount
}
org.accordproject.safte_0_2_0.EquityShare --|> org.accordproject.runtime_0_2_0.Response
class org.accordproject.safte_0_2_0.DissolutionEvent << (T,yellow) >> {
   + String cause
}
org.accordproject.safte_0_2_0.DissolutionEvent --|> org.accordproject.runtime_0_2_0.Request
class org.accordproject.safte_0_2_0.PayOut << (T,yellow) >> {
   + MonetaryAmount amount
}
org.accordproject.safte_0_2_0.PayOut --|> org.accordproject.runtime_0_2_0.Response
class org.accordproject.safte_0_2_0.TemplateModel << (A,green) >> {
   + String companyName
   + Long companyRegistrationNumber
   + String purchaser
   + String jurisdiction
   + MonetaryAmount purchaseAmount
   + Double discount
   + String projectName
   + String projectDescription
   + Integer months
   + String monthsText
   + MonetaryAmount amount
   + String amountText
}
org.accordproject.safte_0_2_0.TemplateModel --|> org.accordproject.contract_0_2_0.Clause
@enduml
