@startuml
class org.accordproject.salescontractru_0_1_0.MyRequest << (T,yellow) >> {
   + String input
}
org.accordproject.salescontractru_0_1_0.MyRequest --|> org.accordproject.runtime_0_2_0.Request
class org.accordproject.salescontractru_0_1_0.MyResponse << (T,yellow) >> {
   + String output
}
org.accordproject.salescontractru_0_1_0.MyResponse --|> org.accordproject.runtime_0_2_0.Response
class org.accordproject.salescontractru_0_1_0.TemplateModel << (A,green) >> {
   + String buyer
   + String seller
   + String refundPeriod
   + String counterparty
   + String currencyType
   + String appealPeriod
   + String countryLegislation
}
org.accordproject.salescontractru_0_1_0.TemplateModel --|> org.accordproject.contract_0_2_0.Clause
@enduml
