@startuml
class org.accordproject.servicelevelagreement.ServiceLevelAgreementContract << (A,green) >> {
   + Integer paymentPeriod
   + Double monthlyCapPercentage
   + Double yearlyCapPercentage
   + Double availability1
   + MonetaryAmount serviceCredit1
   + Double availability2
   + MonetaryAmount serviceCredit2
   + AccordParty serviceProvider
   + AccordParty serviceConsumer
}
org.accordproject.servicelevelagreement.ServiceLevelAgreementContract --|> org.accordproject.cicero.contract.AccordContract
class org.accordproject.servicelevelagreement.MonthSummary << (T,yellow) >> {
   + Double monthlyServiceLevel
   + Double monthlyCharge
   + Double last11MonthCredit
   + Double last11MonthCharge
}
org.accordproject.servicelevelagreement.MonthSummary --|> org.accordproject.base.Transaction
class org.accordproject.servicelevelagreement.InvoiceCredit << (T,yellow) >> {
   + Double monthlyCredit
}
org.accordproject.servicelevelagreement.InvoiceCredit --|> org.accordproject.base.Transaction
@enduml
