@startuml
class org.accordproject.servicelevelagreement_0_1_0.TemplateModel << (A,green) >> {
   + Integer paymentPeriod
   + Double monthlyCapPercentage
   + Double yearlyCapPercentage
   + Double availability1
   + Double serviceCredit1
   + String currencyCode
   + Double availability2
   + Double serviceCredit2
   + String serviceProvider
   + String serviceConsumer
}
org.accordproject.servicelevelagreement_0_1_0.TemplateModel --|> org.accordproject.contract_0_2_0.Clause
class org.accordproject.servicelevelagreement_0_1_0.MonthSummary << (T,yellow) >> {
   + Double monthlyServiceLevel
   + Double monthlyCharge
   + Double last11MonthCredit
   + Double last11MonthCharge
}
org.accordproject.servicelevelagreement_0_1_0.MonthSummary --|> org.accordproject.runtime_0_2_0.Request
class org.accordproject.servicelevelagreement_0_1_0.InvoiceCredit << (T,yellow) >> {
   + Double monthlyCredit
}
org.accordproject.servicelevelagreement_0_1_0.InvoiceCredit --|> org.accordproject.runtime_0_2_0.Response
class org.accordproject.servicelevelagreement_0_1_0.ServiceCreditPaymentEvent {
   + Double amount
   + String currencyCode
   + String description
}
org.accordproject.servicelevelagreement_0_1_0.ServiceCreditPaymentEvent --|> concerto_1_0_0.Event
@enduml
