@startuml
class org.accordproject.simplelatedeliveryandpenalty.SimpleLateDeliveryAndPenaltyContract << (A,green) >> {
   + AccordParty buyer
   + AccordParty seller
   + Duration penaltyDuration
   + Double penaltyPercentage
   + Double capPercentage
   + Duration maximumDelay
}
org.accordproject.simplelatedeliveryandpenalty.SimpleLateDeliveryAndPenaltyContract --|> org.accordproject.cicero.contract.AccordContract
class org.accordproject.simplelatedeliveryandpenalty.SimpleLateDeliveryAndPenaltyRequest << (T,yellow) >> {
   + DateTime agreedDelivery
   + DateTime deliveredAt
   + Double goodsValue
}
org.accordproject.simplelatedeliveryandpenalty.SimpleLateDeliveryAndPenaltyRequest --|> org.accordproject.cicero.runtime.Request
class org.accordproject.simplelatedeliveryandpenalty.SimpleLateDeliveryAndPenaltyResponse << (T,yellow) >> {
   + Double penalty
   + Boolean buyerMayTerminate
}
org.accordproject.simplelatedeliveryandpenalty.SimpleLateDeliveryAndPenaltyResponse --|> org.accordproject.cicero.runtime.Response
@enduml
